<svg width="76" height="71" viewBox="0 0 76 71" fill="none" xmlns="http://www.w3.org/2000/svg">
<path d="M21.6424 56.7541L20.9664 58.804L17.8705 57.9745C16.1678 57.5182 12.9888 56.562 10.8062 55.8496L6.83755 54.5541L6.42854 51.998C5.52413 46.3459 5.76017 37.3714 7.01277 29.7722C7.78112 25.1113 11.2122 12.3578 12.8998 7.8896C14.4426 3.80491 15.451 2.72082 18.066 2.33487C19.4288 2.13375 20.2392 2.31044 25.6042 3.97828C28.9105 5.00611 31.662 5.92751 31.7186 6.02581C31.7753 6.12413 31.3391 8.20586 30.7492 10.6519C29.8491 14.3847 29.5906 15.0999 29.1402 15.1035C28.8451 15.1059 27.1606 14.8325 25.3968 14.4959C23.6331 14.1594 21.97 14.011 21.7012 14.1662C21.3311 14.3799 21.1285 15.5063 20.8663 18.8075C20.4986 23.4381 19.0364 31.4918 17.5626 37.0033C17.0719 38.8384 16.3756 41.8271 16.0153 43.6448L15.3603 46.9497L18.3897 47.7657C20.056 48.2143 21.9564 48.8249 22.6129 49.1225L23.8065 49.6636L23.0624 52.184C22.6531 53.5702 22.0142 55.6267 21.6424 56.7541Z" fill="url(#paint0_radial_1_57)"/>
<path d="M61.2308 61.7936L57.2588 60.6031" stroke="black"/>
<path d="M58.041 60.8117L24.2461 51.7564" stroke="black"/>
<path d="M22.8188 57.5581L56.8093 67.2969" stroke="black"/>
<path d="M21.6509 60.0227L24.8437 49.5199L16.2249 46.8319C19.1613 32.8616 21.475 28.3661 22.0902 14.5802" stroke="black"/>
<path d="M22.3566 14.527L30.4352 15.9344L32.9678 6.0117L20.1411 2.07C15.6496 1.87617 14.1774 5.01548 14.1774 5.01548C1.62958 37.2434 7.15194 55.2563 7.15194 55.2563L21.6271 59.6397" stroke="black"/>
<path d="M30.9629 14.4372L73.1185 25.7327" stroke="black"/>
<path d="M32.0235 7.65381L74.98 18.7854" stroke="black"/>
<path d="M58.1835 67.5217L56.8381 67.1612L56.8575 66.8193C56.9292 65.5563 57.59 61.2036 57.7216 61.1276C57.7547 61.1085 58.4624 61.3142 59.2941 61.5848L60.8063 62.0768L60.4158 63.8154C60.2009 64.7717 59.9135 66.0779 59.777 66.7181L59.5289 67.8821L58.1835 67.5217Z" fill="url(#paint1_linear_1_57)"/>
<path d="M55.5794 66.5695C54.8776 66.3812 48.3694 64.5267 41.1173 62.4486C33.8652 60.3706 26.7892 58.347 25.3933 57.9519L22.8554 57.2337L23.3618 55.5394C23.6403 54.6075 24.0005 53.4687 24.1622 53.0088L24.4561 52.1726L57.8594 61.123L57.7281 61.8766C57.6559 62.2911 57.4534 63.387 57.278 64.3118C57.1027 65.2366 56.9359 66.1999 56.9073 66.4526L56.8554 66.9119L55.5794 66.5695Z" fill="url(#paint2_linear_1_57)"/>
<path d="M52.1417 19.7092L31.2245 14.1044L32.8021 8.21677L33.4204 8.38177C33.7606 8.47249 43.1427 10.9005 54.2694 13.7772C65.3961 16.654 74.52 19.0423 74.544 19.0844C74.5684 19.1265 74.2439 20.5453 73.8231 22.2373L73.0579 25.3136L52.1406 19.7089L52.1417 19.7092Z" fill="url(#paint3_linear_1_57)"/>
<defs>
<radialGradient id="paint0_radial_1_57" cx="0" cy="0" r="1" gradientUnits="userSpaceOnUse" gradientTransform="translate(12.6264 30.0063) rotate(13.4582) scale(22.7596 70.1859)">
<stop stop-color="#333333"/>
<stop offset="1" stop-color="#333333" stop-opacity="0"/>
</radialGradient>
<linearGradient id="paint1_linear_1_57" x1="58.5284" y1="64.8365" x2="59.4048" y2="61.5658" gradientUnits="userSpaceOnUse">
<stop stop-color="#333333"/>
<stop offset="1" stop-color="#333333" stop-opacity="0"/>
</linearGradient>
<linearGradient id="paint2_linear_1_57" x1="40.4173" y1="59.9837" x2="41.3007" y2="56.6866" gradientUnits="userSpaceOnUse">
<stop stop-color="#333333"/>
<stop offset="1" stop-color="#333333" stop-opacity="0"/>
</linearGradient>
<linearGradient id="paint3_linear_1_57" x1="52.8962" y1="16.8935" x2="53.8008" y2="13.5173" gradientUnits="userSpaceOnUse">
<stop stop-color="#333333"/>
<stop offset="1" stop-color="#333333" stop-opacity="0"/>
</linearGradient>
</defs>
</svg>
